<mxfile host="65bd71144e">
    <diagram id="ExdccTZqctQwAvQB16s_" name="Page-1">
        <mxGraphModel dx="1889" dy="1034" grid="0" gridSize="10" guides="1" tooltips="1" connect="1" arrows="1" fold="1" page="0" pageScale="1" pageWidth="827" pageHeight="1169" math="0" shadow="0">
            <root>
                <mxCell id="0"/>
                <mxCell id="1" parent="0"/>
                <mxCell id="48" value="initiator&lt;br&gt;behind a NAT" style="rounded=0;whiteSpace=wrap;html=1;fontStyle=1" vertex="1" parent="1">
                    <mxGeometry y="120" width="120" height="41" as="geometry"/>
                </mxCell>
                <mxCell id="49" value="relay" style="rounded=0;whiteSpace=wrap;html=1;fontStyle=1" vertex="1" parent="1">
                    <mxGeometry x="360" y="121" width="120" height="39" as="geometry"/>
                </mxCell>
                <mxCell id="50" value="" style="endArrow=none;dashed=1;html=1;fontSize=12;entryX=0.5;entryY=1;entryDx=0;entryDy=0;" edge="1" parent="1" target="48">
                    <mxGeometry width="50" height="50" relative="1" as="geometry">
                        <mxPoint x="60" y="888" as="sourcePoint"/>
                        <mxPoint x="80" y="230" as="targetPoint"/>
                    </mxGeometry>
                </mxCell>
                <mxCell id="51" value="" style="endArrow=none;dashed=1;html=1;fontSize=12;entryX=0.5;entryY=1;entryDx=0;entryDy=0;" edge="1" parent="1" target="49">
                    <mxGeometry width="50" height="50" relative="1" as="geometry">
                        <mxPoint x="419" y="928" as="sourcePoint"/>
                        <mxPoint x="70" y="171" as="targetPoint"/>
                    </mxGeometry>
                </mxCell>
                <mxCell id="52" value="" style="endArrow=classic;html=1;" edge="1" parent="1">
                    <mxGeometry width="50" height="50" relative="1" as="geometry">
                        <mxPoint x="59" y="236" as="sourcePoint"/>
                        <mxPoint x="419" y="236" as="targetPoint"/>
                    </mxGeometry>
                </mxCell>
                <mxCell id="53" value="FINDNODE" style="edgeLabel;html=1;align=center;verticalAlign=middle;resizable=0;points=[];fontSize=13;" vertex="1" connectable="0" parent="52">
                    <mxGeometry x="0.2111" y="2" relative="1" as="geometry">
                        <mxPoint x="-173" y="-8" as="offset"/>
                    </mxGeometry>
                </mxCell>
                <mxCell id="54" value="" style="endArrow=classic;html=1;" edge="1" parent="1">
                    <mxGeometry width="50" height="50" relative="1" as="geometry">
                        <mxPoint x="59" y="376" as="sourcePoint"/>
                        <mxPoint x="422" y="376" as="targetPoint"/>
                    </mxGeometry>
                </mxCell>
                <mxCell id="55" value="RELAYREQUEST" style="edgeLabel;html=1;align=center;verticalAlign=middle;resizable=0;points=[];fontSize=13;" vertex="1" connectable="0" parent="54">
                    <mxGeometry x="0.2111" y="2" relative="1" as="geometry">
                        <mxPoint x="-163" y="-17" as="offset"/>
                    </mxGeometry>
                </mxCell>
                <mxCell id="56" value="" style="endArrow=classic;html=1;" edge="1" parent="1">
                    <mxGeometry width="50" height="50" relative="1" as="geometry">
                        <mxPoint x="420" y="298" as="sourcePoint"/>
                        <mxPoint x="60" y="298" as="targetPoint"/>
                    </mxGeometry>
                </mxCell>
                <mxCell id="57" value="NODES" style="edgeLabel;html=1;align=center;verticalAlign=middle;resizable=0;points=[];fontSize=13;" vertex="1" connectable="0" parent="56">
                    <mxGeometry x="-0.2167" y="-2" relative="1" as="geometry">
                        <mxPoint x="103" y="-16" as="offset"/>
                    </mxGeometry>
                </mxCell>
                <mxCell id="58" value="target&lt;br&gt;behind a NAT" style="rounded=0;whiteSpace=wrap;html=1;fontStyle=1" vertex="1" parent="1">
                    <mxGeometry x="694" y="120" width="120" height="39" as="geometry"/>
                </mxCell>
                <mxCell id="59" value="" style="endArrow=none;dashed=1;html=1;fontSize=12;entryX=0.5;entryY=1;entryDx=0;entryDy=0;" edge="1" parent="1" target="58">
                    <mxGeometry width="50" height="50" relative="1" as="geometry">
                        <mxPoint x="753" y="931" as="sourcePoint"/>
                        <mxPoint x="766" y="175" as="targetPoint"/>
                    </mxGeometry>
                </mxCell>
                <mxCell id="60" value="NAT" style="ellipse;whiteSpace=wrap;html=1;" vertex="1" parent="1">
                    <mxGeometry x="129" y="120" width="87" height="44" as="geometry"/>
                </mxCell>
                <mxCell id="61" value="" style="endArrow=none;dashed=1;html=1;fontSize=12;entryX=0.5;entryY=1;entryDx=0;entryDy=0;" edge="1" parent="1" target="60">
                    <mxGeometry width="50" height="50" relative="1" as="geometry">
                        <mxPoint x="175" y="907" as="sourcePoint"/>
                        <mxPoint x="70" y="171" as="targetPoint"/>
                    </mxGeometry>
                </mxCell>
                <mxCell id="62" value="NAT" style="ellipse;whiteSpace=wrap;html=1;" vertex="1" parent="1">
                    <mxGeometry x="605" y="120" width="87" height="44" as="geometry"/>
                </mxCell>
                <mxCell id="63" value="" style="endArrow=none;dashed=1;html=1;fontSize=12;entryX=0.5;entryY=1;entryDx=0;entryDy=0;" edge="1" parent="1" target="62">
                    <mxGeometry width="50" height="50" relative="1" as="geometry">
                        <mxPoint x="649" y="940" as="sourcePoint"/>
                        <mxPoint x="546" y="171" as="targetPoint"/>
                    </mxGeometry>
                </mxCell>
                <mxCell id="65" value="" style="endArrow=classic;html=1;" edge="1" parent="1">
                    <mxGeometry width="50" height="50" relative="1" as="geometry">
                        <mxPoint x="419" y="435" as="sourcePoint"/>
                        <mxPoint x="756" y="432" as="targetPoint"/>
                    </mxGeometry>
                </mxCell>
                <mxCell id="66" value="RELAYREQUEST" style="edgeLabel;html=1;align=center;verticalAlign=middle;resizable=0;points=[];fontSize=13;" vertex="1" connectable="0" parent="65">
                    <mxGeometry x="0.2111" y="2" relative="1" as="geometry">
                        <mxPoint x="-138" y="-16" as="offset"/>
                    </mxGeometry>
                </mxCell>
                <mxCell id="67" value="" style="endArrow=classic;html=1;" edge="1" parent="1">
                    <mxGeometry width="50" height="50" relative="1" as="geometry">
                        <mxPoint x="752" y="522" as="sourcePoint"/>
                        <mxPoint x="421.9999999999998" y="522" as="targetPoint"/>
                    </mxGeometry>
                </mxCell>
                <mxCell id="68" value="RELAYRESPONSE" style="edgeLabel;html=1;align=center;verticalAlign=middle;resizable=0;points=[];fontSize=13;" vertex="1" connectable="0" parent="67">
                    <mxGeometry x="-0.2167" y="-2" relative="1" as="geometry">
                        <mxPoint x="69" y="-16" as="offset"/>
                    </mxGeometry>
                </mxCell>
                <mxCell id="69" value="" style="endArrow=classic;html=1;" edge="1" parent="1">
                    <mxGeometry width="50" height="50" relative="1" as="geometry">
                        <mxPoint x="413" y="587" as="sourcePoint"/>
                        <mxPoint x="74" y="587" as="targetPoint"/>
                    </mxGeometry>
                </mxCell>
                <mxCell id="70" value="RELAYRESPONSE" style="edgeLabel;html=1;align=center;verticalAlign=middle;resizable=0;points=[];fontSize=13;" vertex="1" connectable="0" parent="69">
                    <mxGeometry x="-0.2167" y="-2" relative="1" as="geometry">
                        <mxPoint x="69" y="-16" as="offset"/>
                    </mxGeometry>
                </mxCell>
                <mxCell id="71" value="" style="endArrow=classic;html=1;startArrow=none;" edge="1" parent="1" source="79">
                    <mxGeometry width="50" height="50" relative="1" as="geometry">
                        <mxPoint x="754" y="661" as="sourcePoint"/>
                        <mxPoint x="83" y="661" as="targetPoint"/>
                    </mxGeometry>
                </mxCell>
                <mxCell id="64" value="&lt;span style=&quot;font-family: -apple-system, &amp;quot;system-ui&amp;quot;, &amp;quot;Segoe UI&amp;quot;, &amp;quot;Noto Sans&amp;quot;, Helvetica, Arial, sans-serif, &amp;quot;Apple Color Emoji&amp;quot;, &amp;quot;Segoe UI Emoji&amp;quot;; font-size: 14px; text-align: left; background-color: rgb(13, 17, 23);&quot;&gt;this triggers the target's NAT &lt;br&gt;to allow and route incoming packets&lt;br&gt;&amp;nbsp;from the initiator's ip/port.&lt;/span&gt;" style="shape=note;whiteSpace=wrap;html=1;backgroundOutline=1;darkOpacity=0.05;fontColor=#00CC00;" vertex="1" parent="1">
                    <mxGeometry x="839" y="483" width="271" height="92" as="geometry"/>
                </mxCell>
                <mxCell id="73" value="" style="endArrow=classic;html=1;startArrow=none;" edge="1" parent="1">
                    <mxGeometry width="50" height="50" relative="1" as="geometry">
                        <mxPoint x="63" y="774" as="sourcePoint"/>
                        <mxPoint x="748" y="774" as="targetPoint"/>
                    </mxGeometry>
                </mxCell>
                <mxCell id="74" value="PING" style="edgeLabel;html=1;align=center;verticalAlign=middle;resizable=0;points=[];fontSize=13;" vertex="1" connectable="0" parent="73">
                    <mxGeometry x="0.2111" y="2" relative="1" as="geometry">
                        <mxPoint x="-390" y="-18" as="offset"/>
                    </mxGeometry>
                </mxCell>
                <mxCell id="78" value="&lt;font color=&quot;#f0f0f0&quot;&gt;this PING request is dropped here&lt;/font&gt;" style="shape=note;whiteSpace=wrap;html=1;backgroundOutline=1;darkOpacity=0.05;fontColor=#00CC00;" vertex="1" parent="1">
                    <mxGeometry x="-281" y="548" width="248" height="80" as="geometry"/>
                </mxCell>
                <mxCell id="80" value="" style="endArrow=none;html=1;" edge="1" parent="1" target="79">
                    <mxGeometry width="50" height="50" relative="1" as="geometry">
                        <mxPoint x="753.9999999999995" y="661" as="sourcePoint"/>
                        <mxPoint x="178" y="661" as="targetPoint"/>
                    </mxGeometry>
                </mxCell>
                <mxCell id="81" value="PING" style="edgeLabel;html=1;align=center;verticalAlign=middle;resizable=0;points=[];fontSize=13;" vertex="1" connectable="0" parent="80">
                    <mxGeometry x="-0.2167" y="-2" relative="1" as="geometry">
                        <mxPoint y="-20" as="offset"/>
                    </mxGeometry>
                </mxCell>
                <mxCell id="79" value="" style="rounded=1;whiteSpace=wrap;html=1;strokeWidth=2;fillWeight=4;hachureGap=8;hachureAngle=45;fillColor=#1ba1e2;sketch=1;fontColor=#00CC00;" vertex="1" parent="1">
                    <mxGeometry x="622.5" y="641" width="52" height="39" as="geometry"/>
                </mxCell>
                <mxCell id="82" value="" style="endArrow=none;dashed=1;html=1;fontSize=12;entryX=0;entryY=1;entryDx=0;entryDy=0;entryPerimeter=0;exitX=1;exitY=0.5;exitDx=0;exitDy=0;" edge="1" parent="1" source="79" target="64">
                    <mxGeometry width="50" height="50" relative="1" as="geometry">
                        <mxPoint x="763" y="941" as="sourcePoint"/>
                        <mxPoint x="763.9999999999995" y="169" as="targetPoint"/>
                    </mxGeometry>
                </mxCell>
                <mxCell id="83" value="&lt;span style=&quot;font-family: -apple-system, &amp;quot;system-ui&amp;quot;, &amp;quot;Segoe UI&amp;quot;, &amp;quot;Noto Sans&amp;quot;, Helvetica, Arial, sans-serif, &amp;quot;Apple Color Emoji&amp;quot;, &amp;quot;Segoe UI Emoji&amp;quot;; font-size: 14px; text-align: left; background-color: rgb(13, 17, 23);&quot;&gt;this triggers the initiator's NAT &lt;br&gt;to allow and route incoming packets&lt;br&gt;&amp;nbsp;from the target's ip/port.&lt;/span&gt;" style="shape=note;whiteSpace=wrap;html=1;backgroundOutline=1;darkOpacity=0.05;fontColor=#00CC00;" vertex="1" parent="1">
                    <mxGeometry x="-304" y="825" width="271" height="92" as="geometry"/>
                </mxCell>
                <mxCell id="84" value="" style="rounded=1;whiteSpace=wrap;html=1;strokeWidth=2;fillWeight=4;hachureGap=8;hachureAngle=45;fillColor=#1ba1e2;sketch=1;fontColor=#00CC00;" vertex="1" parent="1">
                    <mxGeometry x="145" y="753" width="52" height="39" as="geometry"/>
                </mxCell>
                <mxCell id="85" value="" style="endArrow=none;dashed=1;html=1;fontSize=12;entryX=0;entryY=1;entryDx=0;entryDy=0;exitX=0;exitY=0;exitDx=271;exitDy=61;exitPerimeter=0;" edge="1" parent="1" source="83" target="84">
                    <mxGeometry width="50" height="50" relative="1" as="geometry">
                        <mxPoint x="684.5" y="670.5" as="sourcePoint"/>
                        <mxPoint x="848.9999999999995" y="585.0000000000002" as="targetPoint"/>
                    </mxGeometry>
                </mxCell>
                <mxCell id="86" value="" style="endArrow=none;dashed=1;html=1;fontSize=12;exitX=0;exitY=0;exitDx=248;exitDy=55;exitPerimeter=0;" edge="1" parent="1" source="78">
                    <mxGeometry width="50" height="50" relative="1" as="geometry">
                        <mxPoint x="-23" y="895.9999999999998" as="sourcePoint"/>
                        <mxPoint x="173" y="660" as="targetPoint"/>
                    </mxGeometry>
                </mxCell>
            </root>
        </mxGraphModel>
    </diagram>
</mxfile>